<svg width="22" height="16" viewBox="0 0 22 16" fill="none" xmlns="http://www.w3.org/2000/svg">
<path d="M20.4804 0.490242C20.2206 0.497983 19.9741 0.606562 19.7929 0.792976L7.49996 13.0859L2.20699 7.79298C2.11485 7.697 2.00448 7.62038 1.88235 7.5676C1.76022 7.51481 1.62879 7.48693 1.49575 7.48557C1.36271 7.48422 1.23073 7.50942 1.10756 7.55971C0.98438 7.61 0.872475 7.68436 0.778396 7.77844C0.684318 7.87252 0.609956 7.98443 0.559667 8.1076C0.509378 8.23078 0.484172 8.36275 0.485525 8.49579C0.486879 8.62883 0.514764 8.76027 0.567549 8.8824C0.620334 9.00452 0.696956 9.11489 0.79293 9.20704L6.79293 15.207C6.98047 15.3945 7.23479 15.4998 7.49996 15.4998C7.76513 15.4998 8.01945 15.3945 8.20699 15.207L21.207 2.20704C21.3515 2.06658 21.4502 1.88574 21.4902 1.68822C21.5301 1.4907 21.5095 1.28571 21.4309 1.10013C21.3524 0.91454 21.2196 0.757011 21.05 0.648182C20.8804 0.539353 20.6819 0.484302 20.4804 0.490242Z" fill="#555D71"/>
</svg>
