<svg width="18" height="18" viewBox="0 0 18 18" fill="none" xmlns="http://www.w3.org/2000/svg">
<path d="M16.4912 0.485356C16.2269 0.491593 15.9759 0.602191 15.7929 0.792974L8.99996 7.58594L2.20699 0.792974C2.11369 0.697061 2.00209 0.620848 1.8788 0.568847C1.7555 0.516847 1.62303 0.490116 1.48922 0.490239C1.29037 0.490485 1.09611 0.550004 0.93125 0.661192C0.76639 0.77238 0.638419 0.93019 0.563683 1.11446C0.488947 1.29873 0.47084 1.5011 0.511675 1.69571C0.552509 1.89032 0.650432 2.06835 0.792933 2.20704L7.5859 9.00001L0.792933 15.793C0.696959 15.8851 0.620336 15.9955 0.56755 16.1176C0.514765 16.2397 0.486879 16.3712 0.485525 16.5042C0.484172 16.6373 0.509377 16.7692 0.559666 16.8924C0.609956 17.0156 0.684317 17.1275 0.778396 17.2216C0.872475 17.3157 0.98438 17.39 1.10756 17.4403C1.23074 17.4906 1.36271 17.5158 1.49575 17.5144C1.62879 17.5131 1.76022 17.4852 1.88235 17.4324C2.00448 17.3796 2.11485 17.303 2.20699 17.207L8.99996 10.4141L15.7929 17.207C15.8851 17.303 15.9954 17.3796 16.1176 17.4324C16.2397 17.4852 16.3711 17.5131 16.5042 17.5145C16.6372 17.5158 16.7692 17.4906 16.8924 17.4403C17.0156 17.39 17.1275 17.3157 17.2215 17.2216C17.3156 17.1275 17.39 17.0156 17.4403 16.8924C17.4906 16.7692 17.5158 16.6373 17.5144 16.5042C17.5131 16.3712 17.4852 16.2397 17.4324 16.1176C17.3796 15.9955 17.303 15.8851 17.207 15.793L10.414 9.00001L17.207 2.20704C17.3525 2.0675 17.4525 1.88725 17.4937 1.68992C17.535 1.49258 17.5157 1.28738 17.4383 1.10123C17.3609 0.915076 17.229 0.756658 17.06 0.646755C16.891 0.536851 16.6927 0.480592 16.4912 0.485356Z" fill="#555D71"/>
</svg>
